<svg width="71" height="71" viewBox="0 0 71 71" fill="none" xmlns="http://www.w3.org/2000/svg">
<path d="M49.2396 15.6185C43.2882 8.94543 28.6242 8.79038 22.3269 15.2964C14.7295 23.1621 17.2043 43.1395 34.85 60.475C52.9727 43.3243 56.4136 23.6213 49.2396 15.6185ZM35.5238 38.4821C33.7179 38.4832 31.9521 37.9488 30.4499 36.9463C28.9477 35.9438 27.7766 34.5183 27.0846 32.8501C26.3927 31.182 26.211 29.346 26.5626 27.5746C26.9143 25.8032 27.7833 24.1758 29.0599 22.8984C30.3365 21.6209 31.9633 20.7508 33.7345 20.3981C35.5057 20.0453 37.3418 20.2257 39.0104 20.9166C40.679 21.6074 42.1053 22.7776 43.1087 24.2792C44.1122 25.7807 44.6478 27.5461 44.6478 29.3521C44.6486 30.5528 44.4124 31.7418 43.9527 32.8511C43.4931 33.9603 42.819 34.9679 41.9692 35.816C41.1193 36.6642 40.1104 37.3363 39.0003 37.7938C37.8902 38.2513 36.7007 38.4852 35.5 38.4821H35.5238Z" fill="#0E4674"/>
</svg>
