<?xml version="1.0" encoding="utf-8"?>
<!-- Generator: Adobe Illustrator 24.3.0, SVG Export Plug-In . SVG Version: 6.00 Build 0)  -->
<svg version="1.1" id="Layer_1" xmlns="http://www.w3.org/2000/svg" xmlns:xlink="http://www.w3.org/1999/xlink" x="0px" y="0px"
	 viewBox="0 0 298 103" style="enable-background:new 0 0 298 103;" xml:space="preserve">
<style type="text/css">
	.st0{fill:none;stroke:#000000;stroke-width:0.5;stroke-miterlimit:10;}
</style>
<image style="display:none;overflow:visible;opacity:0.31;" width="298" height="103" xlink:href="../Sites/apkb/img/logotype.png"  transform="matrix(0.75 0 0 0.75 40.9395 15.6859)">
</image>
<g id="направляющие">
	<line class="st0" x1="43.1" y1="36.4" x2="264" y2="36.4"/>
	<line class="st0" x1="43.1" y1="67.4" x2="264" y2="67.4"/>
	<line class="st0" x1="43.1" y1="59.5" x2="115.8" y2="59.5"/>
	<line class="st0" x1="43.1" y1="52.1" x2="115.8" y2="52.1"/>
	<line class="st0" x1="43.1" y1="44.6" x2="115.8" y2="44.6"/>
	<line class="st0" x1="99.7" y1="90.6" x2="99.7" y2="22.5"/>
	<line class="st0" x1="116" y1="90.5" x2="116" y2="22.5"/>
	<line class="st0" x1="107.4" y1="90.7" x2="132.4" y2="22.4"/>
	<line class="st0" x1="86.1" y1="90.7" x2="111.2" y2="22.3"/>
	<line class="st0" x1="83.9" y1="90.7" x2="108.8" y2="22.4"/>
</g>
<g id="прямоугольники">
	<polygon points="65.3,44.4 69,36.5 80.7,36.6 77.4,44.5 	"/>
	<polygon points="79.8,44.5 82.9,36.5 90.4,36.5 87.4,44.6 	"/>
	<polygon points="89.2,44.4 92.1,36.5 96,36.4 93.2,44.5 	"/>
	<polygon points="94.8,44.3 97.5,36.5 99.7,36.5 97,44.4 	"/>
	<polygon points="58.2,44.7 60.4,44.7 63.2,52 61.2,51.9 	"/>
	<polygon points="62.3,44.6 65.1,52 68.6,52.1 65.7,44.6 	"/>
	<polygon points="68.3,44.6 71.2,51.9 78.4,52 75.5,44.6 	"/>
	<polygon points="77.7,44.7 81,52 92.1,52 88.8,44.6 	"/>
	<polygon points="69.3,52.1 65.7,59.3 77.5,59.4 80.7,52.2 	"/>
	<polygon points="82.8,52.2 79.7,59.4 87.1,59.4 90.2,52.1 	"/>
	<polygon points="92.5,52.1 89.6,59.4 93.2,59.5 96,52 	"/>
	<polygon points="98.1,52.1 100.2,52.2 97.5,59.6 95.3,59.5 	"/>
	<polygon points="58.2,59.6 60.3,59.6 62.9,67.4 60.9,67.3 	"/>
	<polygon points="61.9,59.6 66,59.5 69.1,67.4 64.7,67.4 	"/>
	<polygon points="67.6,59.4 75.1,59.5 78.7,67.4 71,67.4 	"/>
	<polygon points="77.3,59.5 88.6,59.6 92.4,67.4 80.8,67.3 	"/>
</g>
<g id="апкб">
	<path d="M134.3,36.7l-6.9,0l-11.6,30.8h7.2l2-6.7h10.3l2.1,6.7h7.2L134.3,36.7z M126.1,55.6l4.2-11.5l3.9,11.7L126.1,55.6z"/>
	<polygon points="152,67.3 152,36.4 177.7,36.4 177.7,67.3 170.7,67.3 170.7,43.2 158.9,43.2 159,67.4 	"/>
	<polygon points="188,36.3 195,36.3 194.9,48.8 197.7,48.8 206.9,36.2 214,36.2 202.8,51.5 214.7,67.4 207.4,67.3 198.1,54.8 
		195,54.8 195,67.2 187.9,67.2 	"/>
	<path d="M242.1,49h-11.9v-5.9h15.9l-0.1-6.6h-22.9l0.1,30.6c6.3,0,12.6,0,18.9,0c3.9-1.4,6.5-5.2,6.4-9.3
		C248.5,53.9,245.9,50.4,242.1,49z M237.9,61.3c-2.6,0-5,0.1-7.6,0.1l-0.1-7.2h7.6c2.3,0,4.1,1.9,3.9,3.9
		C241.5,59.8,239.9,61.3,237.9,61.3z"/>
</g>
</svg>
