<svg id="Layer_1" data-name="Layer 1" xmlns="http://www.w3.org/2000/svg" viewBox="0 0 298 103"><defs><style>.cls-1{opacity:0.3;}.cls-2{fill:none;stroke:#0e4674;stroke-miterlimit:10;stroke-width:0.5px;}.cls-3{fill:#0e4674;}</style></defs><g id="направляющие" class="cls-1"><line class="cls-2" x1="38.59" y1="31.4" x2="259.41" y2="31.4"/><line class="cls-2" x1="38.59" y1="62.42" x2="259.41" y2="62.42"/><line class="cls-2" x1="38.59" y1="54.5" x2="111.23" y2="54.5"/><line class="cls-2" x1="38.59" y1="47.05" x2="111.23" y2="47.05"/><line class="cls-2" x1="38.59" y1="39.6" x2="111.23" y2="39.6"/><line class="cls-2" x1="95.17" y1="85.56" x2="95.17" y2="17.51"/><line class="cls-2" x1="111.43" y1="85.54" x2="111.43" y2="17.51"/><line class="cls-2" x1="102.82" y1="85.66" x2="127.83" y2="17.4"/><line class="cls-2" x1="81.56" y1="85.66" x2="106.61" y2="17.34"/><line class="cls-2" x1="79.34" y1="85.66" x2="104.3" y2="17.42"/></g><g id="направляющие-2" data-name="направляющие"><polygon class="cls-3" points="60.97 39.35 64.42 31.65 76.09 31.64 73.02 39.35 60.97 39.35"/><polygon class="cls-3" points="75.31 39.35 78.26 31.66 85.76 31.66 82.96 39.34 75.31 39.35"/><polygon class="cls-3" points="84.69 39.34 87.56 31.65 91.39 31.65 88.65 39.34 84.69 39.34"/><polygon class="cls-3" points="90.25 39.33 92.98 31.65 94.93 31.65 92.48 39.35 90.25 39.33"/><polygon class="cls-3" points="53.75 39.85 55.87 39.84 58.62 46.8 56.58 46.8 53.75 39.85"/><polygon class="cls-3" points="57.82 39.85 60.49 46.81 64.15 46.78 61.16 39.84 57.82 39.85"/><polygon class="cls-3" points="63.72 39.85 66.67 46.79 74.03 46.78 71 39.85 63.72 39.85"/><polygon class="cls-3" points="73.06 39.85 76.17 46.78 87.94 46.8 84.68 39.88 73.06 39.85"/><polygon class="cls-3" points="64.18 47.29 61.38 54.26 72.83 54.25 76.25 47.32 64.18 47.29"/><polygon class="cls-3" points="78.18 47.3 75.19 54.26 82.62 54.25 85.61 47.3 78.18 47.3"/><polygon class="cls-3" points="87.98 47.3 85.14 54.25 88.72 54.25 91.3 47.3 87.98 47.3"/><polygon class="cls-3" points="93.64 47.3 95.41 47.31 92.81 54.24 91.07 54.26 93.64 47.3"/><polygon class="cls-3" points="53.68 54.75 55.64 54.76 58.35 62.18 56.33 62.17 53.68 54.75"/><polygon class="cls-3" points="57.4 54.75 61.49 54.75 64.5 62.17 59.96 62.17 57.4 54.75"/><polygon class="cls-3" points="63.11 54.76 70.67 54.75 74.08 62.17 66.35 62.17 63.11 54.76"/><polygon class="cls-3" points="72.76 54.76 85.05 54.76 87.66 62.17 76.23 62.17 72.76 54.76"/></g><g id="апкб"><path class="cls-3" d="M130.06,31.64h-7.12L111.56,62.08h7.15l2-6.63h10.33l2.12,6.63h7.24ZM121.8,50.3,126,39l3.88,11.52Z"/><polygon class="cls-3" points="148.02 62.06 148.02 31.59 173.77 31.59 173.77 62.06 166.76 62.06 166.7 38.29 154.95 38.29 155.01 62.15 148.02 62.06"/><polygon class="cls-3" points="184.07 31.71 191.06 31.71 190.97 43.92 193.72 43.92 202.94 31.62 210 31.62 198.8 46.58 210.72 62.15 203.43 62.14 194.17 49.85 191 49.85 191 62.13 183.98 62.13 184.07 31.71"/><path class="cls-3" d="M238.1,44.08H226.24V38.23h15.93l-.09-6.56H219.22l.09,30.48h18.88a9.54,9.54,0,0,0-.09-18.07Zm-4.16,12.23-7.64.09-.09-7.2h7.55a3.56,3.56,0,1,1,.18,7.11Z"/></g></svg>