<?xml version="1.0" encoding="iso-8859-1"?>
<!-- Generator: Adobe Illustrator 16.0.0, SVG Export Plug-In . SVG Version: 6.00 Build 0)  -->
<!DOCTYPE svg PUBLIC "-//W3C//DTD SVG 1.1//EN" "http://www.w3.org/Graphics/SVG/1.1/DTD/svg11.dtd">
<svg version="1.1" id="Capa_1" xmlns="http://www.w3.org/2000/svg" xmlns:xlink="http://www.w3.org/1999/xlink" x="0px" y="0px"
	 width="485.212px" height="485.212px" viewBox="0 0 485.212 485.212" style="enable-background:new 0 0 485.212 485.212;"
	 xml:space="preserve">
<g>
	<path d="M32.22,136.526V102.41c0.028-6.07,7.019-16.911,7.315-17.177C93.051,30.8,166.256,0,242.663,0
		c76.584,0,150.031,30.947,203.576,85.708c0.056,0,6.753,10.66,6.753,16.701v34.116c0,12.499-9.185,27.368-20.376,32.931
		l-4.798,2.371c-11.136,5.626-29.202,5.094-40.039-1.066l-40.1-22.92c-10.897-6.221-19.961-21.56-19.961-34.058V91.005
		c-52.598-30.266-117.601-30.233-170.227-0.028v22.806c0,12.499-9.063,27.778-19.903,34.058l-40.158,22.861
		c-10.807,6.219-28.845,6.751-40.067,1.127l-4.77-2.369C41.402,163.833,32.22,149.024,32.22,136.526z M454.887,333.584v121.302
		c0,16.671-13.628,30.326-30.327,30.326H60.649c-16.645,0-30.324-13.655-30.324-30.326V333.584c0-16.671,9.654-39.979,21.44-51.768
		l78.421-78.419c11.787-11.789,35.122-21.443,51.767-21.443v-30.327c14.333-19.069,36.781-30.324,60.651-30.324
		c23.872,0,46.377,11.255,60.648,30.324v30.327c16.704,0,39.983,9.654,51.768,21.443l78.421,78.419
		C445.231,293.606,454.887,316.914,454.887,333.584z M181.954,409.396c0-8.382-6.753-15.159-15.161-15.159h-30.329
		c-8.352,0-15.161,6.777-15.161,15.159s6.809,15.163,15.161,15.163h30.329C175.201,424.559,181.954,417.778,181.954,409.396z
		 M181.954,348.748c0-8.378-6.753-15.163-15.161-15.163h-30.329c-8.352,0-15.161,6.785-15.161,15.163
		c0,8.382,6.809,15.158,15.161,15.158h30.329C175.201,363.906,181.954,357.129,181.954,348.748z M181.954,288.094
		c0-8.383-6.753-15.164-15.161-15.164h-30.329c-8.352,0-15.161,6.781-15.161,15.164c0,8.382,6.809,15.163,15.161,15.163h30.329
		C175.201,303.257,181.954,296.476,181.954,288.094z M272.931,409.396c0-8.382-6.753-15.159-15.163-15.159h-30.327
		c-8.352,0-15.161,6.777-15.161,15.159s6.809,15.163,15.161,15.163h30.327C266.178,424.559,272.931,417.778,272.931,409.396z
		 M272.931,348.748c0-8.378-6.753-15.163-15.163-15.163h-30.327c-8.352,0-15.161,6.785-15.161,15.163
		c0,8.382,6.809,15.158,15.161,15.158h30.327C266.178,363.906,272.931,357.129,272.931,348.748z M272.931,288.094
		c0-8.383-6.753-15.164-15.163-15.164h-30.327c-8.352,0-15.161,6.781-15.161,15.164c0,8.382,6.809,15.163,15.161,15.163h30.327
		C266.178,303.257,272.931,296.476,272.931,288.094z M363.907,409.396c0-8.382-6.753-15.159-15.163-15.159h-30.322
		c-8.35,0-15.168,6.777-15.168,15.159s6.818,15.163,15.168,15.163h30.322C357.154,424.559,363.907,417.778,363.907,409.396z
		 M363.907,348.748c0-8.378-6.753-15.163-15.163-15.163h-30.322c-8.35,0-15.168,6.785-15.168,15.163
		c0,8.382,6.818,15.158,15.168,15.158h30.322C357.154,363.906,363.907,357.129,363.907,348.748z M363.907,288.094
		c0-8.383-6.753-15.164-15.163-15.164h-30.322c-8.35,0-15.168,6.781-15.168,15.164c0,8.382,6.818,15.163,15.168,15.163h30.322
		C357.154,303.257,363.907,296.476,363.907,288.094z"/>
</g>
<g>
</g>
<g>
</g>
<g>
</g>
<g>
</g>
<g>
</g>
<g>
</g>
<g>
</g>
<g>
</g>
<g>
</g>
<g>
</g>
<g>
</g>
<g>
</g>
<g>
</g>
<g>
</g>
<g>
</g>
</svg>
