<svg width="60" height="60" viewBox="0 0 60 60" fill="none" xmlns="http://www.w3.org/2000/svg">
<g clip-path="url(#clip0_108_1061)">
<path fill-rule="evenodd" clip-rule="evenodd" d="M56.8934 42.4C55.4001 41.6214 48.1734 37.8285 46.8267 37.3143C45.48 36.8 44.4934 36.5285 43.4934 38.1C42.4934 39.6714 39.6667 43.1857 38.8267 44.2071C37.9867 45.2285 37.1134 45.3857 35.6201 44.6C34.1267 43.8143 29.4134 42.1928 23.7867 36.8285C20.5809 33.6803 17.8307 30.0379 15.6267 26.0214C14.7867 24.4571 15.5467 23.6143 16.2934 22.8285C17.0401 22.0428 17.7601 20.9928 18.5134 20.0928C18.7134 19.8214 18.8801 19.5785 19.0467 19.3357C19.3924 18.7348 19.704 18.1123 19.9801 17.4714C20.1776 17.0408 20.2708 16.5638 20.251 16.0844C20.2312 15.6051 20.0991 15.1388 19.8667 14.7285C19.5001 13.9428 16.5334 6.23569 15.3134 3.10712C14.0934 -0.0214565 12.8667 0.514258 11.9801 0.514258C11.0934 0.514258 10.1534 0.364258 9.17338 0.364258C8.42747 0.383637 7.69328 0.567412 7.01657 0.904131C6.33985 1.24085 5.73512 1.7233 5.24005 2.3214C3.90672 3.88569 0.0933838 7.68569 0.0933838 15.3928C0.119563 17.1949 0.372968 18.9849 0.846717 20.7143C1.99987 24.6266 3.7773 28.2952 6.10005 31.5571C6.83338 32.5785 16.2734 48.9 31.2267 55.1928C46.1801 61.4857 46.2067 59.35 48.9067 59.0785C51.6067 58.8071 57.6201 55.3143 58.8267 51.6428C60.0334 47.9714 60.0667 44.8643 59.7001 44.2C59.3334 43.5357 58.3467 43.1857 56.8934 42.4Z" fill="#0E4674"/>
</g>
<defs>
<clipPath id="clip0_108_1061">
<rect width="60" height="60" fill="white"/>
</clipPath>
</defs>
</svg>
